<?xml version="1.0" encoding="UTF-8"?>
<!-- Created with Inkscape (http://www.inkscape.org/) -->
<svg width="64" height="64" version="1.1" viewBox="0 0 64 64" xmlns="http://www.w3.org/2000/svg">
 <path d="m18.6 56c-0.538-0.0547-0.868-0.153-1.37-0.405-1.17-0.594-1.97-1.69-2.2-3.03-0.0317-0.182-0.0462-5.06-0.0462-15.5v-15.3h34v30.5l-0.0926 0.434c-0.213 1-0.747 1.87-1.5 2.45-0.345 0.266-1.06 0.618-1.46 0.72-0.288 0.0727-1.15 0.078-13.7 0.0842-7.39 4e-3 -13.5-4.5e-4 -13.6-9e-3zm15.2-5.88c0.848-0.145 1.99-0.468 2.64-0.744 0.513-0.219 1.53-0.779 2.03-1.12 2.13-1.45 3.69-3.44 4.58-5.85 0.39-1.06 0.555-1.81 0.689-3.16 0.196-1.98-0.271-4.38-1.22-6.29-0.357-0.716-0.878-1.53-1.44-2.26-0.375-0.484-1.43-1.52-1.96-1.92-1.55-1.17-3.32-1.96-5.08-2.26-1.03-0.174-1.86-0.222-2.71-0.159-2.59 0.192-4.9 1.12-6.82 2.75-0.4 0.337-1.23 1.17-1.52 1.53-0.43 0.533-0.983 1.34-1.16 1.7-0.0365 0.0738-0.154 0.295-0.26 0.492-0.106 0.197-0.24 0.469-0.296 0.604-0.0565 0.135-0.129 0.307-0.161 0.38-0.14 0.324-0.425 1.23-0.547 1.73-0.562 2.33-0.395 4.86 0.466 7.05 0.788 2 1.87 3.5 3.58 4.98 0.826 0.71 2.29 1.58 3.24 1.92 1.17 0.417 1.91 0.593 3.15 0.744 0.0847 0.0104 0.63 0.0123 1.21 4e-3 0.819-0.0114 1.18-0.036 1.61-0.109zm-3.1-1.7c-1.1-0.178-1.74-0.359-2.61-0.747-0.627-0.277-1.12-0.539-1.43-0.761-0.115-0.0824-0.22-0.15-0.233-0.15-0.0515 0-0.55-0.396-0.989-0.787-1.06-0.943-1.83-1.94-2.46-3.2-0.817-1.63-1.2-3.41-1.09-5.07l0.0327-0.485 0.161 0.0292c0.468 0.085 0.75 0.231 1.54 0.798 0.781 0.559 1.2 0.701 1.82 0.614 0.412-0.0582 0.727-0.217 1.29-0.65 0.242-0.185 0.599-0.416 0.793-0.513 0.327-0.164 0.961-0.338 1.04-0.286 0.0198 0.0124 0.0359 0.318 0.0359 0.68l-2.9e-5 0.657-0.16 0.179c-0.0878 0.0985-0.227 0.284-0.309 0.413-1.17 1.83-0.961 4.16 0.513 5.76 0.285 0.31 0.897 0.774 1.28 0.967 0.58 0.296 1.5 0.539 2.04 0.538 0.6-4.5e-4 1.42-0.205 2.1-0.525 0.346-0.162 0.949-0.615 1.27-0.952 0.614-0.647 1.1-1.64 1.24-2.52 0.0768-0.483 0.0352-1.4-0.0841-1.85-0.147-0.559-0.666-1.57-0.968-1.89-0.0875-0.0922-0.0938-0.146-0.0938-0.795v-0.696l0.187 0.0288c0.58 0.0894 1.06 0.329 1.72 0.849 0.462 0.367 0.734 0.507 1.14 0.584 0.646 0.124 1.1-0.0226 1.91-0.616 0.641-0.468 0.948-0.633 1.36-0.73 0.368-0.0866 0.36-0.0868 0.366 8e-3 0.0259 0.438 0.0079 1.56-0.0301 1.91-0.229 2.12-1.1 4.14-2.47 5.73-0.913 1.06-2.04 1.94-3.28 2.54-1.39 0.678-2.59 0.962-4.21 0.995-0.739 0.0149-0.999 3e-3 -1.43-0.0673zm0.573-3.09c-0.974-0.151-2.08-1.05-2.54-2.06-0.251-0.55-0.345-0.981-0.345-1.59 0-0.526 0.0309-0.733 0.172-1.15 0.161-0.472 0.371-0.842 0.693-1.22l0.324-0.382 0.025-8.53 0.127-0.313c0.417-1.03 1.28-1.64 2.31-1.63 0.941 3e-3 1.89 0.68 2.24 1.6l0.116 0.302 0.0441 8.61 0.223 0.236c0.602 0.638 0.928 1.4 0.974 2.27 0.0545 1.04-0.267 1.93-0.978 2.72-0.234 0.259-0.678 0.634-0.752 0.634-0.0169 0-0.0921 0.0466-0.167 0.104-0.183 0.139-0.555 0.286-0.929 0.366-0.325 0.0697-1.16 0.0818-1.54 0.0224zm1.22-1.01c1.03-0.215 1.88-1.04 2.09-2.03 0.215-1.03-0.161-2.12-0.957-2.76-0.184-0.149-0.238-0.244-0.165-0.29 0.0638-0.04 0.0516-8.09-0.0128-8.45-0.0632-0.357-0.182-0.604-0.408-0.85-0.24-0.261-0.555-0.411-0.928-0.441-0.668-0.0545-1.23 0.336-1.48 1.03-0.0783 0.218-0.0824 0.441-0.0824 4.58 0 2.56-0.0163 4.35-0.0398 4.35-0.0832 0-0.609 0.589-0.767 0.859-0.359 0.614-0.467 1.34-0.297 1.98 0.225 0.844 0.664 1.41 1.38 1.77 0.591 0.299 1.08 0.374 1.67 0.251zm-0.757-0.96c-0.9-0.127-1.56-1.07-1.4-1.99 0.0834-0.475 0.558-1.1 0.939-1.24 0.0834-0.0306 0.152-0.0768 0.152-0.103 4.42e-4 -0.0258 0.0199-0.0168 0.0434 0.0202 0.0278 0.0437 0.0429-1.01 0.0434-3.01 6.1e-4 -2.75 0.0079-3.1 0.0724-3.23 0.0954-0.204 0.218-0.285 0.435-0.285 0.193 0 0.342 0.082 0.429 0.237 0.0424 0.0753 0.0605 0.821 0.0774 3.18l0.022 3.08 0.22 0.13c0.812 0.48 1.12 1.41 0.738 2.24-0.334 0.725-0.99 1.09-1.77 0.975zm-16.7-27.6 0.0122-4.49 0.159-0.478c0.0877-0.263 0.23-0.605 0.315-0.761 0.202-0.368 0.71-0.961 1.05-1.22 0.368-0.288 1.05-0.618 1.5-0.731l0.382-0.0948h13.5c12.2 0 13.6 7e-3 13.9 0.0706 0.747 0.155 1.36 0.501 1.95 1.09 0.472 0.476 0.715 0.852 0.923 1.43 0.267 0.743 0.262 0.647 0.262 5.36l1e-5 4.31h-34zm7.8 0.93c0.491-0.0889 0.86-0.293 1.26-0.696 0.593-0.595 0.841-1.3 0.754-2.14-0.0727-0.699-0.289-1.15-0.788-1.63-0.448-0.435-0.818-0.633-1.33-0.708-1.2-0.178-2.27 0.372-2.8 1.43-0.346 0.695-0.333 1.71 0.0323 2.37 0.61 1.11 1.62 1.59 2.86 1.37z" stroke-width=".0444"/>
</svg>
